# xmcd
#
# Track frame offsets:
#	150
#	22739
#	35468
#	47720
#	66172
#	80641
#	93068
#	108704
#
# Disc length: 1671 seconds
# Revision: 1
# Processed by: cddbd v1.5.2PL0 Copyright (c) Steve Scherf et al.
# Submitted via: dBpowerAMP V12.0
#
DISCID=5c068508
DTITLE=Eric Lindell - West County Drifter
DYEAR=2011
DGENRE=Blues
TTITLE0=Lucky Lucky
TTITLE1=Try to Understand
TTITLE2=True Blue Love
TTITLE3=It's So Hard to Believe
TTITLE4=Bodega
TTITLE5=Matrimony
TTITLE6=That's Why I'm Crying
TTITLE7=Don't Fret
EXTD=
EXTT0=
EXTT1=
EXTT2=
EXTT3=
EXTT4=
EXTT5=
EXTT6=
EXTT7=
PLAYORDER=
